<svg width="500" height="500" viewBox="0 0 500 500" fill="none" xmlns="http://www.w3.org/2000/svg">
<path d="M248.1 1.61471C226.184 55.3401 212.877 90.5301 188.485 142.661C203.438 158.515 221.823 176.915 251.646 197.769C219.585 184.576 197.731 171.369 181.392 157.622C150.169 222.776 101.215 315.553 1.94604 493.922C79.9461 448.892 140.423 421.107 196.777 410.507C194.361 400.115 193.077 388.822 193.169 377.092L193.231 374.63C194.469 324.645 220.477 286.207 251.285 288.815C282.085 291.422 306.069 334.076 304.831 384.069C304.592 393.484 303.5 402.53 301.646 410.93C357.392 421.838 417.292 449.492 494.254 493.922C479.077 465.984 465.485 440.807 452.546 416.815C432.169 401.022 410.923 380.476 367.569 358.222C397.369 365.969 418.723 374.922 435.354 384.907C303.831 140.022 293.2 107.461 248.1 1.61471V1.61401V1.61471Z" fill="#F9F9F9"/>
<path d="M386.662 294.223C279.954 149.4 255.223 32.6693 248.954 4.80011C305.877 136.085 305.485 137.7 386.662 294.223Z" fill="white" fill-opacity="0.16568"/>
<path d="M249.061 3.53802C246.292 10.3417 243.677 16.9749 241.123 23.2496C238.323 30.1311 235.6 36.7611 232.954 43.2019C230.307 49.6426 227.623 55.7473 225.023 61.9519C222.415 68.1557 219.992 74.2896 217.331 80.4619C214.669 86.6311 211.746 92.8696 208.915 99.208C206.084 105.554 203.131 111.962 200.023 118.685C196.915 125.4 193.654 132.539 190.161 139.839C189.692 140.823 189.207 141.962 188.723 142.962C203.638 158.762 222.031 177.016 251.7 197.77C219.646 184.577 197.854 171.37 181.507 157.623C180.661 159.362 179.984 160.893 179.107 162.67C175.877 169.37 172.407 176 168.769 183.346C167.9 185.07 167.261 186.631 166.369 188.393C162.515 196.116 158.477 204.108 154.107 212.67C153.238 214.362 152.354 215.762 151.461 217.477C148.823 222.608 140.384 238.785 131.754 255.223C126.715 264.823 122.761 272.685 117.084 283.346C115.477 286.408 112.169 292.539 111.315 294.162C173.815 258.985 241.246 207.885 363.723 251.616C357.592 240 351.707 229.162 346.415 218.923C341.123 208.677 336.323 199.146 331.754 190.077C327.184 181.008 322.961 172.454 319.007 164.354C315.061 156.254 311.4 148.608 307.954 141.277C304.507 133.946 301.146 126.893 298.1 120.123C295.046 113.362 292.207 106.816 289.446 100.416C286.684 94.008 284.1 87.6619 281.507 81.4234C278.923 75.1811 276.338 69.1957 273.815 62.9134C272.723 60.1796 271.792 57.2688 270.692 54.4996C263.861 38.4619 257.161 22.5649 249.061 3.53802V3.53818V3.53802Z" fill="url(#paint0_linear)"/>
<defs>
<linearGradient id="paint0_linear" x1="249.226" y1="81.7856" x2="166.011" y2="225.177" gradientUnits="userSpaceOnUse">
<stop stop-color="white" stop-opacity="0"/>
<stop offset="1" stop-color="white" stop-opacity="0.27451"/>
</linearGradient>
</defs>
</svg>
