<svg width="500" height="619" viewBox="0 0 500 619" fill="none" xmlns="http://www.w3.org/2000/svg">
<path d="M298.812 326.69C288.5 326.833 300.764 331.97 314.227 334.028C317.946 331.143 321.32 328.224 324.327 325.384C315.943 327.426 307.409 327.471 298.812 326.69Z" fill="#F9F9F9"/>
<path d="M354.164 312.983C360.304 304.562 364.781 295.342 366.359 285.809C364.982 292.605 361.268 298.472 357.774 304.664C338.497 316.723 355.96 297.503 357.762 290.199C337.033 316.119 354.916 305.742 354.164 312.983Z" fill="#F9F9F9"/>
<path d="M374.594 260.163C375.84 241.712 370.938 247.545 369.291 254.587C371.214 255.579 372.735 267.592 374.594 260.163Z" fill="#F9F9F9"/>
<path d="M259.708 7.97661C265.211 8.9573 271.599 9.70993 270.703 11.0156C276.723 9.70423 278.089 8.49547 259.708 7.97661Z" fill="#F9F9F9"/>
<path d="M270.703 11.0156L266.812 11.8139L270.434 11.4946L270.703 11.0156Z" fill="#F9F9F9"/>
<path d="M442.319 267.159C442.933 283.728 437.441 291.767 432.488 305.999L423.575 310.423C416.281 324.495 424.281 319.358 419.059 330.55C407.673 340.608 384.505 362.024 377.091 363.979C371.679 363.859 380.758 357.633 381.946 355.193C366.703 365.593 369.716 370.804 346.405 377.122L345.722 375.616C288.23 402.488 208.368 349.235 209.418 276.572C208.804 281.185 207.673 280.033 206.399 281.898C203.432 244.512 223.777 206.96 258.089 191.628C291.65 175.122 330.996 181.896 355.036 204.155C341.831 186.97 315.547 168.753 284.396 170.458C253.883 170.937 225.337 190.203 215.811 211.117C200.178 220.895 198.365 248.811 191.553 253.919C182.388 320.84 208.792 349.753 253.458 383.764C260.488 388.474 255.438 389.186 256.391 392.773C241.55 385.868 227.96 375.445 216.787 362.685C222.715 371.306 229.114 379.687 237.383 386.273C223.392 381.563 204.701 352.587 199.243 351.407C223.363 394.312 297.102 426.652 335.713 410.608C317.848 411.263 295.151 410.973 275.076 403.6C266.646 399.29 255.18 390.361 257.228 388.69C309.923 408.247 364.356 403.503 409.951 367.189C421.55 358.215 434.221 342.946 437.882 342.735C432.367 350.974 438.824 346.697 434.588 353.973C446.146 335.454 429.567 346.435 446.537 321.992L452.803 330.567C450.474 315.195 472.017 296.528 469.831 272.216C474.772 264.781 475.346 280.216 470.1 297.321C477.377 278.345 472.017 275.295 473.888 259.638C475.908 264.901 478.56 270.494 479.92 276.048C475.179 257.711 484.786 245.167 487.162 234.511C484.821 233.479 479.845 242.619 478.709 220.958C478.875 211.55 481.343 216.026 482.296 213.711C480.436 212.65 475.558 205.438 472.591 191.606C474.743 188.356 478.341 200.033 481.268 200.512C479.386 189.513 476.143 181.126 476.011 172.687C467.461 154.932 472.987 175.054 466.049 165.064C456.947 136.858 473.601 158.519 474.726 145.701C488.522 165.56 496.39 196.338 500 209.087C497.245 193.544 492.792 178.486 487.357 163.918C491.547 165.669 480.608 131.937 492.803 154.277C479.776 106.656 437.05 62.1599 397.745 41.2803C402.554 45.6535 408.626 51.1443 406.445 52.0052C386.898 40.4422 390.336 39.5413 387.535 34.655C371.61 28.2177 370.565 35.1738 360.017 34.6664C330.003 18.8499 324.218 20.5319 296.597 10.6223L297.854 16.4551C277.969 9.87538 274.686 18.9525 253.194 16.4779C251.886 15.463 260.081 12.8061 266.824 11.8311C247.599 14.3512 248.5 8.06794 229.688 12.5267C234.325 9.29381 239.226 7.15567 244.172 4.40746C228.494 5.35394 206.744 13.4732 213.458 6.08946C187.886 17.4244 142.468 33.3379 116.982 57.0797L116.178 51.76C104.5 65.6893 65.2516 93.3596 62.1239 111.4L59.002 112.124C52.9245 122.347 48.9934 133.933 44.1727 144.452C36.2244 157.908 32.5228 149.63 33.6534 151.739C18.0207 183.23 10.256 209.691 3.54722 231.392C8.32771 238.491 3.662 274.126 5.46975 302.646C-2.38103 443.501 104.97 580.262 222.313 611.838C239.512 617.95 265.091 617.716 286.847 618.343C261.177 611.051 257.86 614.477 232.855 605.817C214.818 597.378 210.864 587.742 198.089 576.727L203.145 585.604C178.089 576.795 188.574 574.702 168.19 568.288L173.59 561.281C165.47 560.671 152.081 547.682 148.419 540.492L139.536 540.84C128.861 527.755 123.174 518.324 123.587 511.02L120.718 516.1C117.464 510.553 81.4467 467.026 100.132 477.158C96.6605 474.005 92.0464 472.026 87.0421 462.995L90.847 458.673C81.8542 447.178 74.2961 432.445 74.8699 427.536C79.6676 433.973 82.9962 435.176 86.2903 436.277C63.5816 380.297 62.3076 433.192 45.1081 379.294L48.7466 379.003C45.9575 374.829 44.2645 370.297 42.0206 365.849L43.6046 350.17C27.2545 331.388 39.0307 270.312 41.3894 236.814C43.0249 223.193 55.0364 208.693 64.1727 185.955L58.606 185.003C69.2458 166.564 119.358 110.949 142.566 113.812C153.808 99.7797 140.333 113.76 138.135 110.225C162.83 84.8356 170.594 92.2877 187.26 87.7206C205.234 77.1212 171.834 91.8544 180.356 83.6781C211.426 75.7927 202.376 65.752 242.91 61.7494C247.185 64.1669 232.987 65.484 229.424 68.6199C255.312 56.0363 311.346 58.8986 347.742 75.6045C389.974 95.2127 437.423 153.176 439.294 207.713L441.423 208.283C440.344 229.961 444.763 255.031 437.108 278.06L442.319 267.159Z" fill="#F9F9F9"/>
<path d="M186.25 340.756L184.804 347.94C191.581 357.086 196.959 366.996 205.613 374.145C199.386 362.069 194.761 357.08 186.25 340.756Z" fill="#F9F9F9"/>
<path d="M202.273 340.129C198.686 336.189 196.563 331.445 194.187 326.719C196.46 335.026 201.114 342.164 205.447 349.423L202.273 340.129Z" fill="#F9F9F9"/>
<path d="M485.796 278.904L484.281 282.679C481.504 302.281 475.507 321.678 466.313 339.661C476.471 320.686 483.042 299.932 485.796 278.904Z" fill="#F9F9F9"/>
<path d="M261.745 3.06181C268.718 0.524556 278.887 1.6706 286.284 0C276.643 0.803939 267.048 1.28288 257.573 2.49734L261.745 3.06181Z" fill="#F9F9F9"/>
<path d="M16.9533 132.388C18.5602 147.166 5.76248 152.902 19.7883 143.158C27.3062 126.332 16.85 138.511 16.9533 132.388Z" fill="#F9F9F9"/>
<path d="M0.471214 200.785C3.7022 190.933 4.28756 185.014 5.52142 179.313C-3.40827 190.653 1.41239 193.071 0.471214 200.785Z" fill="#F9F9F9"/>
</svg>
