<svg width="266" height="115" viewBox="0 0 266 115" fill="none" xmlns="http://www.w3.org/2000/svg">
<g opacity="0.3" clip-path="url(#clip0)">
<path d="M96.8713 73.5358C97.0468 72.6536 96.7758 71.7446 96.1538 71.1149L92.7507 67.5677L97.5155 65.6856C98.358 65.3544 98.9634 64.6359 99.1704 63.7719C99.3704 62.8829 99.1243 61.9674 98.5115 61.322C94.3525 56.7961 89.0628 51.9755 81.366 50.3303C80.6652 50.1991 79.9396 50.0746 79.2113 49.9905C79.6469 49.3836 80.0332 48.7899 80.3969 48.1624C84.3243 41.3852 84.2503 34.2307 83.673 28.1253C83.5801 27.2352 83.0359 26.3993 82.2774 26.0049C81.4968 25.5766 80.5454 25.5523 79.7472 25.951L75.0621 28.1299L74.8341 23.125C74.7817 22.2372 74.2846 21.4283 73.5221 20.9688C72.7687 20.4935 71.8013 20.4601 70.9811 20.8249C65.3855 23.3795 59.1294 26.893 55.2019 33.6702C54.8474 34.2821 54.5152 34.9277 54.2077 35.5665C53.7614 34.9961 53.2905 34.4322 52.801 33.8998C47.453 28.0207 40.3338 25.85 34.7055 24.6207C33.829 24.4302 32.9255 24.6847 32.2623 25.2862C31.6144 25.8967 31.2992 26.8032 31.4262 27.671L32.1569 32.7141L27.1514 31.4246C26.284 31.2187 25.3583 31.4393 24.6884 32.016C24.0088 32.6083 23.6621 33.4966 23.7711 34.396C24.5197 40.4952 25.9699 47.521 31.2146 53.3616C31.6431 53.8172 32.0967 54.2665 32.5595 54.6999C32.0263 54.8952 31.5089 55.0996 31.0139 55.3379C23.7823 58.5413 19.4632 64.654 16.5249 69.6158C16.0794 70.3846 16.0143 71.3303 16.4052 72.1407C16.7714 72.958 17.5358 73.5232 18.4148 73.6731L23.4536 74.5424L20.7258 78.8512C20.2486 79.6019 20.3408 80.2404 20.7068 81.0577C21.0482 81.8817 21.7943 82.4779 22.6797 82.6529C28.3535 83.8038 35.6123 85.0087 42.8438 81.8054C43.4381 81.5406 43.9065 81.2036 44.4875 80.8892C44.5048 81.5475 44.6506 82.238 44.7175 82.8832C45.5327 90.7151 50.2257 96.3847 54.063 100.705C54.2603 100.944 54.494 101.12 54.7461 101.265C55.2502 101.555 55.8291 101.679 56.4359 101.609C57.1583 101.523 57.7226 101.345 58.1288 100.826C58.2172 100.71 58.29 100.584 58.3446 100.49L60.7102 95.9728L64.0012 99.8947C64.571 100.578 65.4443 100.955 66.3376 100.862C67.2222 100.785 68.0273 100.265 68.4729 99.4967C71.3009 94.4717 74.4705 87.6975 73.6394 79.8566C73.5831 79.3012 73.5024 78.7526 73.4214 78.2042C74.0453 78.3958 74.6873 78.5559 75.3227 78.6912C83.0442 80.3297 89.95 77.7967 95.285 75.5104C96.1065 75.1459 96.696 74.4184 96.8713 73.5358Z" fill="#EF5093"/>
<path d="M52.2342 67.5229C47.8931 65.0259 46.4002 59.4749 48.9065 55.15C51.4128 50.8251 56.9845 49.3377 61.3255 51.8347C65.6666 54.3317 67.1595 59.8827 64.6532 64.2076C62.1469 68.5325 56.5752 70.0199 52.2342 67.5229Z" fill="#E4E9EE"/>
<path d="M64.6532 64.2075C67.1595 59.8826 65.6665 54.3316 61.3255 51.8346L52.2341 67.5228C56.5751 70.0198 62.1467 68.5327 64.6532 64.2075Z" fill="#CED7E2"/>
<path d="M58.5981 56.5412C56.862 55.5426 54.6333 56.1369 53.6305 57.8673C52.6278 59.5977 53.2255 61.8178 54.9616 62.8164C56.6977 63.8151 58.9265 63.2207 59.9292 61.4903C60.932 59.76 60.3342 57.5398 58.5981 56.5412Z" fill="#EFC437"/>
<path d="M59.9291 61.4902C60.9319 59.7599 60.3342 57.5397 58.5981 56.5411L54.9615 62.8163C56.6976 63.815 58.9262 63.2209 59.9291 61.4902Z" fill="#D7A03C"/>
</g>
<path d="M63.2421 79C62.5998 79 62.118 78.88 61.7968 78.64C61.5157 78.4 61.3752 78 61.3752 77.44V69.58C60.8533 69.22 59.8696 68.9 58.4242 68.62C56.9789 68.34 55.6138 68.16 54.329 68.08C53.8874 68.92 53.5662 69.94 53.3654 71.14L53.1245 72.34C53.0844 72.62 52.9639 73.24 52.7632 74.2C52.5624 75.16 52.3416 76 52.1007 76.72C51.8598 77.4 51.6189 77.94 51.378 78.34C49.8524 78.34 48.9691 77.94 48.7282 77.14C49.1698 76.5 49.6717 74.62 50.2338 71.5L52.2212 60.52C53.1045 55.32 53.9074 50.88 54.6301 47.2C55.393 43.52 56.1959 40.44 57.0391 37.96C57.9625 35.2 58.8458 33.82 59.6889 33.82C60.5321 33.82 61.1745 33.98 61.6161 34.3C61.6161 35.9 61.9975 39.76 62.7604 45.88C63.5633 51.88 63.9648 55.98 63.9648 58.18C63.9648 60.3 64.1857 63.34 64.6273 67.3C65.0288 71.34 65.2295 74.56 65.2295 76.96C65.2295 78.32 64.5671 79 63.2421 79ZM60.1105 66.1C60.4317 66.1 60.8332 66.04 61.315 65.92C61.1945 64.16 60.9938 61.98 60.7127 59.38C59.7893 50.34 59.3276 44.8 59.3276 42.76V42.28C58.9261 42.68 58.364 44.5 57.6413 47.74C56.9588 50.94 56.3164 54.38 55.7142 58.06C55.1119 61.74 54.7907 64.18 54.7506 65.38C56.4368 65.86 58.2235 66.1 60.1105 66.1Z" fill="url(#paint0_linear)"/>
<path d="M90.2592 79.78C89.7372 79.78 89.2554 79.6 88.8138 79.24C88.4123 78.88 88.1915 78.44 88.1513 77.92V75.16C88.1112 74.8 88.0911 74.38 88.0911 73.9C88.0911 73.06 88.0309 71.78 87.9104 70.06L87.79 66.22C87.79 64.26 87.8502 61.34 87.9706 57.46C88.1312 53.98 88.2115 51.06 88.2115 48.7C88.2115 48.14 88.1513 47.3 88.0309 46.18C87.9104 45.02 87.8502 44.18 87.8502 43.66C87.8502 40.82 88.6933 39.4 90.3796 39.4C91.7045 39.4 93.2302 39.66 94.9566 40.18C96.7232 40.7 97.6065 41.32 97.6065 42.04C97.6065 42.44 97.4258 42.82 97.0645 43.18C96.7433 43.5 96.3418 43.76 95.86 43.96C94.1737 43.36 92.648 42.96 91.283 42.76C91.3231 43.36 91.3432 44.22 91.3432 45.34C91.3432 46.94 91.3231 48.38 91.283 49.66C91.1625 51.58 91.1023 53.02 91.1023 53.98L91.283 54.94L92.2465 54.88C92.5677 54.84 92.9692 54.82 93.451 54.82C95.3782 54.82 96.3418 55.38 96.3418 56.5C96.3418 56.94 96.1611 57.32 95.7998 57.64C95.4384 57.92 94.9767 58.06 94.4146 58.06C93.6919 58.06 93.1298 58.02 92.7283 57.94H91.2227C91.303 58.98 91.3432 60.5 91.3432 62.5C91.3432 64.5 91.3231 66.3 91.283 67.9C91.1625 70.34 91.1023 72.16 91.1023 73.36C91.1023 75.6 91.1424 76.72 91.2227 76.72L93.2101 76.66C93.8927 76.62 94.7157 76.6 95.6793 76.6C97.205 76.6 97.9678 77.08 97.9678 78.04C97.9678 78.6 97.7068 79.02 97.1849 79.3C96.7031 79.62 96.1009 79.78 95.3782 79.78H90.2592Z" fill="url(#paint1_linear)"/>
<path d="M123.032 78.04L122.972 75.7C122.931 75.02 122.911 74.26 122.911 73.42L122.972 71.38C122.851 70.94 122.55 66.56 122.068 58.24C121.586 49.92 121.305 44.58 121.225 42.22C118.896 42.14 117.411 41.9 116.768 41.5C116.327 41.18 116.106 40.82 116.106 40.42C116.106 40.1 116.307 39.82 116.708 39.58C117.15 39.3 117.592 39.16 118.033 39.16C119.157 39.16 120.522 39.24 122.128 39.4C123.654 39.6 125.019 39.7 126.224 39.7H127.187C128.432 39.7 129.054 40.18 129.054 41.14C129.054 41.62 128.853 42.02 128.452 42.34C128.05 42.62 127.589 42.76 127.067 42.76C126.705 42.76 126.184 42.7 125.501 42.58L124.296 42.34L124.176 42.94C124.176 46.5 124.517 52.18 125.2 59.98C125.842 67.3 126.163 72.98 126.163 77.02C126.163 77.5 125.943 77.92 125.501 78.28C125.099 78.64 124.638 78.82 124.116 78.82L123.032 78.04Z" fill="url(#paint2_linear)"/>
<path d="M160.723 79C159.358 79 158.676 75.7 158.676 69.1L158.736 65.68L158.796 62.92V62.14C158.836 61.82 158.857 61.44 158.857 61C158.857 60.92 158.796 60.82 158.676 60.7C158.555 60.58 158.495 60.48 158.495 60.4V60.34C158.294 60.42 157.933 60.46 157.411 60.46C156.889 60.46 156.247 60.38 155.484 60.22C155.243 60.18 154.601 60.08 153.557 59.92V66.82C153.557 67.86 153.617 69.5 153.738 71.74C153.858 73.94 153.918 75.58 153.918 76.66C153.918 77.26 153.758 77.78 153.436 78.22C153.115 78.66 152.694 78.88 152.172 78.88C151.409 78.88 150.867 78.14 150.546 76.66C150.224 75.14 150.064 73.16 150.064 70.72L150.184 65.86C150.224 64.5 150.245 63.06 150.245 61.54V59.68C150.245 59.04 150.224 58.62 150.184 58.42V58.12L150.365 54.64C150.365 53.12 150.305 50.86 150.184 47.86C150.064 44.86 150.004 42.6 150.004 41.08C150.004 40.6 150.164 40.18 150.485 39.82C150.807 39.46 151.208 39.28 151.69 39.28C152.975 39.28 153.617 40.48 153.617 42.88L153.497 50.32C153.416 52.56 153.376 55.06 153.376 57.82C153.978 58.02 155.062 58.12 156.628 58.12H158.857C158.937 57.88 158.977 57.64 158.977 57.4C158.977 55.48 158.857 52.64 158.616 48.88C158.335 45.36 158.194 42.5 158.194 40.3C158.194 39.86 158.355 39.5 158.676 39.22C159.037 38.9 159.459 38.74 159.941 38.74C160.222 38.74 160.623 38.84 161.145 39.04L161.687 39.28C161.687 44.96 161.888 52.54 162.289 62.02L162.831 77.2C162.831 77.76 162.61 78.2 162.169 78.52C161.767 78.84 161.286 79 160.723 79Z" fill="url(#paint3_linear)"/>
<path d="M187.888 79.78C187.366 79.78 186.884 79.6 186.442 79.24C186.041 78.88 185.82 78.44 185.78 77.92V75.16C185.74 74.8 185.72 74.38 185.72 73.9C185.72 73.06 185.659 71.78 185.539 70.06L185.419 66.22C185.419 64.26 185.479 61.34 185.599 57.46C185.76 53.98 185.84 51.06 185.84 48.7C185.84 48.14 185.78 47.3 185.659 46.18C185.539 45.02 185.479 44.18 185.479 43.66C185.479 40.82 186.322 39.4 188.008 39.4C189.333 39.4 190.859 39.66 192.585 40.18C194.352 40.7 195.235 41.32 195.235 42.04C195.235 42.44 195.054 42.82 194.693 43.18C194.372 43.5 193.97 43.76 193.489 43.96C191.802 43.36 190.277 42.96 188.912 42.76C188.952 43.36 188.972 44.22 188.972 45.34C188.972 46.94 188.952 48.38 188.912 49.66C188.791 51.58 188.731 53.02 188.731 53.98L188.912 54.94L189.875 54.88C190.196 54.84 190.598 54.82 191.08 54.82C193.007 54.82 193.97 55.38 193.97 56.5C193.97 56.94 193.79 57.32 193.428 57.64C193.067 57.92 192.605 58.06 192.043 58.06C191.321 58.06 190.758 58.02 190.357 57.94H188.851C188.932 58.98 188.972 60.5 188.972 62.5C188.972 64.5 188.952 66.3 188.912 67.9C188.791 70.34 188.731 72.16 188.731 73.36C188.731 75.6 188.771 76.72 188.851 76.72L190.839 76.66C191.521 76.62 192.344 76.6 193.308 76.6C194.834 76.6 195.596 77.08 195.596 78.04C195.596 78.6 195.335 79.02 194.814 79.3C194.332 79.62 193.729 79.78 193.007 79.78H187.888Z" fill="url(#paint4_linear)"/>
<path d="M227.827 80.02C226.944 80.02 226.141 79.06 225.418 77.14C224.575 75.06 223.953 72.92 223.551 70.72L223.13 68.68C221.965 62.96 221.222 59.7 220.901 58.9H220.179C220.179 60.06 220.159 61.12 220.118 62.08V65.38C220.118 70.74 220.5 74.92 221.263 77.92L220.6 79.54H218.914L218.131 78.64L218.191 74.62C218.191 71.02 218.011 65.56 217.649 58.24C217.328 50.44 217.167 44.98 217.167 41.86C217.167 39.94 217.83 38.98 219.155 38.98C221.323 38.98 223.089 39.54 224.455 40.66C225.86 41.78 226.562 43.34 226.562 45.34V49.54C226.562 50.14 226.462 50.84 226.261 51.64C226.06 52.4 225.84 53.02 225.599 53.5L224.455 55.66L223.491 57.46L223.792 58.9L224.635 63.16C225.197 66.24 225.739 68.74 226.261 70.66C226.783 72.58 227.426 74.32 228.188 75.88L228.55 76.6C228.951 77.4 229.152 78.04 229.152 78.52C229.152 78.92 229.032 79.26 228.791 79.54C228.55 79.86 228.229 80.02 227.827 80.02ZM220.42 55.96C221.303 55.52 222.046 54.32 222.648 52.36C223.29 50.36 223.611 48.52 223.611 46.84C223.611 45.56 223.451 44.36 223.13 43.24C222.929 42.6 222.588 42.12 222.106 41.8C221.664 41.44 221.102 41.26 220.42 41.26L220.299 41.56L220.179 42.1L220.299 49.18C220.379 51.26 220.42 53.52 220.42 55.96Z" fill="url(#paint5_linear)"/>
<defs>
<linearGradient id="paint0_linear" x1="59.4146" y1="19" x2="231.582" y2="79.3995" gradientUnits="userSpaceOnUse">
<stop stop-color="#EF5093"/>
<stop offset="1" stop-color="#DF2DEE"/>
</linearGradient>
<linearGradient id="paint1_linear" x1="59.4146" y1="19" x2="231.582" y2="79.3995" gradientUnits="userSpaceOnUse">
<stop stop-color="#EF5093"/>
<stop offset="1" stop-color="#DF2DEE"/>
</linearGradient>
<linearGradient id="paint2_linear" x1="59.4146" y1="19" x2="231.582" y2="79.3995" gradientUnits="userSpaceOnUse">
<stop stop-color="#EF5093"/>
<stop offset="1" stop-color="#DF2DEE"/>
</linearGradient>
<linearGradient id="paint3_linear" x1="59.4146" y1="19" x2="231.582" y2="79.3995" gradientUnits="userSpaceOnUse">
<stop stop-color="#EF5093"/>
<stop offset="1" stop-color="#DF2DEE"/>
</linearGradient>
<linearGradient id="paint4_linear" x1="59.4146" y1="19" x2="231.582" y2="79.3995" gradientUnits="userSpaceOnUse">
<stop stop-color="#EF5093"/>
<stop offset="1" stop-color="#DF2DEE"/>
</linearGradient>
<linearGradient id="paint5_linear" x1="59.4146" y1="19" x2="231.582" y2="79.3995" gradientUnits="userSpaceOnUse">
<stop stop-color="#EF5093"/>
<stop offset="1" stop-color="#DF2DEE"/>
</linearGradient>
<clipPath id="clip0">
<rect width="83.5667" height="83.4112" fill="white" transform="matrix(0.86683 0.498604 -0.501397 0.865217 42.6857 0.666672)"/>
</clipPath>
</defs>
</svg>
