<svg width="32" height="32" viewBox="0 0 32 32" fill="none" xmlns="http://www.w3.org/2000/svg">
<path d="M31.567 22.0602L30.7968 21.9125C30.4358 21.8432 30.1515 21.6069 30.0171 21.264C29.8822 20.9216 29.9302 20.5552 30.1478 20.2586L30.6315 19.5994C30.7872 19.3872 30.7648 19.0928 30.5782 18.9066L29.5334 17.8624C29.3526 17.6816 29.0683 17.6549 28.8571 17.7978L28.208 18.2373C28.0315 18.3568 27.8294 18.4202 27.6219 18.4202C27.1718 18.4202 26.6688 18.113 26.5787 17.5264L26.4544 16.7184C26.4144 16.4586 26.1904 16.2661 25.9275 16.2661H24.4502C24.1947 16.2661 23.9744 16.448 23.9264 16.6992L23.7355 17.6938C23.6283 18.2544 23.1328 18.5477 22.6998 18.5477C22.4923 18.5477 22.2896 18.4848 22.1136 18.3653L21.2752 17.7978C21.0635 17.6549 20.7798 17.6816 20.599 17.8624L19.5542 18.9066C19.3675 19.0928 19.3451 19.3866 19.5008 19.5994L19.9846 20.2586C20.2022 20.5552 20.2502 20.9216 20.1152 21.264C19.9808 21.6069 19.6966 21.8432 19.3355 21.9125L18.5654 22.0602C18.3152 22.1088 18.1334 22.3285 18.1334 22.5845V24.0618C18.1334 24.3248 18.3254 24.5488 18.5856 24.5888L19.3936 24.713C19.7579 24.769 20.0507 24.9946 20.1979 25.3317C20.3451 25.6693 20.311 26.0373 20.1046 26.3424L19.6651 26.9914C19.5216 27.2026 19.5488 27.4869 19.7296 27.6677L20.7739 28.7125C20.9595 28.8986 21.2534 28.921 21.4667 28.7658L22.1259 28.2821C22.3083 28.1477 22.5216 28.0768 22.7424 28.0768C23.176 28.0768 23.6715 28.3706 23.7792 28.9312L23.927 29.7013C23.9755 29.9525 24.1952 30.1344 24.4507 30.1344H25.928C26.191 30.1344 26.415 29.9424 26.455 29.6821L26.5424 29.1141C26.6326 28.5274 27.136 28.2202 27.5867 28.2202C27.807 28.2202 28.0203 28.2917 28.2032 28.4261L28.6667 28.7664C28.88 28.9221 29.1739 28.8997 29.3595 28.713L30.4038 27.6682C30.5846 27.4874 30.6118 27.2037 30.4683 26.992L30.0288 26.3429C29.8224 26.0384 29.7883 25.6698 29.9355 25.3322C30.0822 24.9952 30.3755 24.7696 30.7398 24.7136L31.5478 24.5893C31.808 24.5482 32 24.3242 32 24.0613V22.584C32 22.3285 31.8182 22.1088 31.567 22.0602ZM30.9334 23.6042L30.5776 23.6592C29.8555 23.7701 29.2502 24.2362 28.9584 24.9056C28.6662 25.5754 28.7366 26.336 29.1462 26.9402L29.3387 27.2245L28.9291 27.6341L28.8347 27.5648C28.4672 27.2954 28.0358 27.153 27.5867 27.153C26.5312 27.153 25.648 27.9093 25.488 28.9509L25.471 29.0666H24.8918L24.8272 28.729C24.6358 27.7328 23.7584 27.009 22.7424 27.009C22.2928 27.009 21.8619 27.152 21.4944 27.4202L21.2043 27.633L20.7947 27.2234L20.9872 26.9392C21.3968 26.3344 21.4667 25.5738 21.175 24.9045C20.8832 24.2352 20.2774 23.769 19.5558 23.6581L19.2 23.6042V23.025L19.5376 22.9605C20.2555 22.8224 20.8427 22.3338 21.1094 21.6544C21.376 20.9744 21.2774 20.217 20.8459 19.6277L20.6331 19.3376L21.0427 18.928L21.5168 19.249C21.8699 19.488 22.2795 19.6149 22.7008 19.6149C23.7168 19.6149 24.5931 18.8922 24.7846 17.8954L24.8923 17.3333H25.4715L25.5264 17.689C25.687 18.7306 26.5691 19.4869 27.6246 19.4869C28.0454 19.4869 28.4544 19.3605 28.808 19.1205L29.0923 18.928L29.5019 19.3376L29.2891 19.6277C28.8571 20.2165 28.759 20.9738 29.0256 21.6544C29.2923 22.3338 29.88 22.8224 30.5974 22.9605L30.9334 23.025V23.6042Z" fill="#F9F9F9"/>
<path d="M25.0667 20.5333C23.5963 20.5333 22.4 21.7296 22.4 23.2C22.4 24.6704 23.5963 25.8667 25.0667 25.8667C26.5371 25.8667 27.7334 24.6704 27.7334 23.2C27.7334 21.7296 26.5371 20.5333 25.0667 20.5333ZM25.0667 24.8C24.1846 24.8 23.4667 24.0821 23.4667 23.2C23.4667 22.3179 24.1846 21.6 25.0667 21.6C25.9488 21.6 26.6667 22.3179 26.6667 23.2C26.6667 24.0821 25.9488 24.8 25.0667 24.8Z" fill="#F9F9F9"/>
<path d="M14.1413 5.60003L11.4747 1.8667H0V30.1334H19.9317L17.6635 27.8635C17.4827 27.6827 17.4555 27.399 17.5989 27.1872L18.2939 26.1616L16.9856 25.9606C16.7253 25.9211 16.5333 25.6971 16.5333 25.4336V21.2624C16.5333 21.007 16.7152 20.7867 16.9664 20.7387L18.1824 20.5051L17.3989 19.4384C17.2432 19.2262 17.2656 18.9318 17.4523 18.7456L20.4027 15.7968C20.584 15.616 20.8667 15.5894 21.0789 15.7323L22.3259 16.5766L22.3547 16.4086L22.6059 15.0998C22.6544 14.8486 22.8741 14.6667 23.1296 14.6667H27.3008C27.5637 14.6667 27.7877 14.8587 27.8277 15.119L28.0293 16.4272L29.0544 15.7323C29.2656 15.5894 29.5499 15.616 29.7307 15.7968L32 18.0651V10.4V9.33337V5.60003H14.1413ZM30.9333 9.33337H16.808L14.9035 6.6667H30.9333V9.33337Z" fill="#F9F9F9"/>
</svg>
