<svg width="1920" height="321" viewBox="0 0 1920 321" fill="none" xmlns="http://www.w3.org/2000/svg">
<path d="M0 192.667L53.3333 214C106.667 235.333 213.333 278 320 249.6C426.667 220.667 533.333 122 640 86C746.667 50 853.333 79.3333 960 100.267C1066.67 122 1173.33 135.333 1280 107.333C1386.67 79.3333 1493.33 7.33328 1600 0.666617C1706.67 -6.00005 1813.33 49.9999 1866.67 78.9333L1920 107.333V320.667H1866.67C1813.33 320.667 1706.67 320.667 1600 320.667C1493.33 320.667 1386.67 320.667 1280 320.667C1173.33 320.667 1066.67 320.667 960 320.667C853.333 320.667 746.667 320.667 640 320.667C533.333 320.667 426.667 320.667 320 320.667C213.333 320.667 106.667 320.667 53.3333 320.667H0V192.667Z" fill="#EF5093"/>
</svg>
