<svg width="1920" height="376" viewBox="0 0 1920 376" fill="none" xmlns="http://www.w3.org/2000/svg">
<path d="M0 341.333L35.6 355.6C71.0667 369.333 142.667 398.667 213.333 341.333C284.4 284 356 142.667 426.667 99.6C497.733 57.3333 569.333 113.333 640 113.733C711.067 113.333 782.667 57.3333 853.333 78.2667C924.4 100 996 198.667 1066.67 227.6C1137.73 256 1209.33 213.333 1280 184.933C1351.07 156 1422.67 142.667 1493.33 170.667C1564.4 198.667 1636 270.667 1706.67 277.333C1777.73 284 1849.33 228 1884 199.067L1920 170.667V0H1884.4C1848.93 0 1777.33 0 1706.67 0C1635.6 0 1564 0 1493.33 0C1422.27 0 1350.67 0 1280 0C1208.93 0 1137.33 0 1066.67 0C995.6 0 924 0 853.333 0C782.267 0 710.667 0 640 0C568.933 0 497.333 0 426.667 0C355.6 0 284 0 213.333 0C142.267 0 70.6667 0 36 0H0V341.333Z" fill="#2DA8D9"/>
</svg>
