<svg width="1920" height="385" viewBox="0 0 1920 385" fill="none" xmlns="http://www.w3.org/2000/svg">
<path d="M0 170.8L35.6 163.728C71.0667 156.122 142.667 142.778 213.333 156.522C284.4 170.8 356 213.5 426.667 249.128C497.733 284.222 569.333 313.578 640 270.478C711.067 228.178 782.667 113.422 853.333 113.822C924.4 113.422 996 228.178 1066.67 256.2C1137.73 284.222 1209.33 228.178 1280 234.85C1351.07 241.522 1422.67 313.578 1493.33 320.25C1564.4 326.922 1636 270.878 1706.67 270.478C1777.73 270.878 1849.33 326.922 1884 355.878L1920 384.3V0H1884.4C1848.93 0 1777.33 0 1706.67 0C1635.6 0 1564 0 1493.33 0C1422.27 0 1350.67 0 1280 0C1208.93 0 1137.33 0 1066.67 0C995.6 0 924 0 853.333 0C782.267 0 710.667 0 640 0C568.933 0 497.333 0 426.667 0C355.6 0 284 0 213.333 0C142.267 0 70.6667 0 36 0H0V170.8Z" fill="#EF5093"/>
</svg>
