<svg width="1920" height="427" viewBox="0 0 1920 427" fill="none" xmlns="http://www.w3.org/2000/svg">
<g clip-path="url(#clip0)">
<path d="M0 170.667L40 177.733C80 185.333 160 198.667 240 206.267C320 213.333 400 213.333 480 184.933C560 156 640 100 720 99.6001C800 100 880 156 960 206.267C1040 256 1120 298.667 1200 320C1280 341.333 1360 341.333 1440 334.267C1520 326.667 1600 313.333 1680 284.4C1760 256 1840 213.333 1880 192L1920 170.667V426.667H1880C1840 426.667 1760 426.667 1680 426.667C1600 426.667 1520 426.667 1440 426.667C1360 426.667 1280 426.667 1200 426.667C1120 426.667 1040 426.667 960 426.667C880 426.667 800 426.667 720 426.667C640 426.667 560 426.667 480 426.667C400 426.667 320 426.667 240 426.667C160 426.667 80 426.667 40 426.667H0V170.667Z" fill="#2DA8D9"/>
</g>
<defs>
<clipPath id="clip0">
<rect width="1920" height="426.667" fill="white"/>
</clipPath>
</defs>
</svg>
